<svg xmlns="http://www.w3.org/2000/svg" viewBox="0 0 194.5 44" enable-background="new 0 0 194.5 44" class="plant_logo"><path class="path" fill="#fff" d="M87.8 26.3l-5.3-13.4-5.2 13.4h10.5zm-67.7-3.6c4.4 0 6.2-2.7 6.2-5.3 0-2.5-1.9-5.3-6.2-5.3H13v10.6h7.1zm163.2-10.6H175V44h-13V12.1h-12.5V44h-15.6l-14.8-24v24H94.8L92 37H73l-2.7 7h-33V24.8c-1.8 4.9-7.3 9-15.4 9H13V44H0V1h21.9c8.1 0 13.6 4.5 15.4 9.6V1h13v31.9h10.6L74.2 1H91l15.2 36.2V1h15.7l14.7 24V1h48.6c3.5 0 6.5-.4 9.1-1 .2.8.4 2 .4 3-.2 5.9-4.4 9.1-11.4 9.1"></path></svg>