<svg width="35px" height="35px" viewBox="0 0 35 35" version="1.1" xmlns="http://www.w3.org/2000/svg" xmlns:xlink="http://www.w3.org/1999/xlink" xmlns:sketch="http://www.bohemiancoding.com/sketch/ns">
    <!-- Generator: Sketch 3.3.3 (12081) - http://www.bohemiancoding.com/sketch -->
    
    <desc>Created with Sketch.</desc>
    <defs></defs>
    <g id="Page-1" stroke="none" stroke-width="1" fill="none" fill-rule="evenodd" sketch:type="MSPage">
        <g id="Kontakt" sketch:type="MSArtboardGroup" transform="translate(-1229.000000, -2572.000000)" fill="#FFFFFF">
            <g id="Footer" sketch:type="MSLayerGroup" transform="translate(0.000000, 2276.000000)">
                <path d="M1246.25909,296 C1236.72727,296 1229,303.727273 1229,313.259091 C1229,322.786364 1236.72727,330.513636 1246.25909,330.513636 C1255.78636,330.513636 1263.51364,322.786364 1263.51364,313.259091 C1263.51364,303.727273 1255.78636,296 1246.25909,296 L1246.25909,296 Z M1255.04818,320.554545 C1255.04818,321.063636 1254.40455,321.605 1253.9,321.605 L1250.04818,321.605 L1250.04818,315.241364 L1251.81364,315.241364 L1252.14091,312.514091 L1250.04818,312.514091 L1250.04818,310.886364 C1250.04818,310.159091 1249.85,309.786818 1250.89545,309.786818 L1252.77545,309.786818 L1252.77545,307.409091 C1252.32091,307.377273 1251.61636,307.309091 1250.69364,307.309091 C1248.77545,307.309091 1247.32091,308.481818 1247.32091,310.636364 L1247.32091,312.514091 L1245.04818,312.514091 L1245.04818,315.241364 L1247.32091,315.241364 L1247.32091,321.605 L1239.05455,321.605 C1238.54545,321.605 1238.68455,321.063636 1238.68455,320.554545 L1238.68455,305.709091 C1238.68455,305.2 1238.54545,304.786818 1239.05455,304.786818 L1253.9,304.786818 C1254.40455,304.786818 1255.04818,305.2 1255.04818,305.709091 L1255.04818,320.554545 L1255.04818,320.554545 Z" id="social-icons/facebook" sketch:type="MSShapeGroup"></path>
            </g>
        </g>
    </g>
</svg>