<svg width="34px" height="35px" viewBox="0 0 34 35" version="1.1" xmlns="http://www.w3.org/2000/svg" xmlns:xlink="http://www.w3.org/1999/xlink" xmlns:sketch="http://www.bohemiancoding.com/sketch/ns">
    <!-- Generator: Sketch 3.3.3 (12081) - http://www.bohemiancoding.com/sketch -->
    
    <desc>Created with Sketch.</desc>
    <defs></defs>
    <g id="Page-1" stroke="none" stroke-width="1" fill="none" fill-rule="evenodd" sketch:type="MSPage">
        <g id="Kontakt" sketch:type="MSArtboardGroup" transform="translate(-1185.000000, -2572.000000)" fill="#FFFFFF">
            <g id="Footer" sketch:type="MSLayerGroup" transform="translate(0.000000, 2276.000000)">
                <path d="M1201.98658,296 C1192.60526,296 1185,303.727273 1185,313.259091 C1185,322.786364 1192.60526,330.513636 1201.98658,330.513636 C1211.36342,330.513636 1218.96868,322.786364 1218.96868,313.259091 C1218.96868,303.727273 1211.36342,296 1201.98658,296 L1201.98658,296 Z M1194.83271,310.486364 L1197.96429,310.486364 L1197.96429,320.940909 L1194.83271,320.940909 L1194.83271,310.486364 Z M1195.97395,309.577273 L1195.95158,309.577273 C1194.78395,309.577273 1194.03237,308.672727 1194.03237,307.668182 C1194.03237,306.645455 1194.80632,305.813636 1195.99632,305.813636 C1197.18184,305.813636 1197.91105,306.672727 1197.93789,307.695455 C1197.93789,308.7 1197.18184,309.577273 1195.97395,309.577273 L1195.97395,309.577273 Z M1210.93797,320.940909 L1206.91166,320.940909 L1206.91166,315.645455 C1206.91166,314.240909 1206.33008,313.286364 1205.07297,313.286364 C1204.11561,313.286364 1203.62126,313.931818 1203.37074,314.554545 C1203.27679,314.777273 1203.33271,315.086364 1203.33271,315.4 L1203.33271,320.940909 L1199.62895,320.940909 C1199.62895,320.940909 1199.67368,311.395455 1199.62895,310.486364 L1203.33271,310.486364 L1203.33271,312.272727 C1203.78008,311.563636 1204.85376,310.55 1206.69692,310.55 C1208.98297,310.55 1210.93797,312.036364 1210.93797,315.245455 L1210.93797,320.940909 L1210.93797,320.940909 Z" id="social-icons/linkedin" sketch:type="MSShapeGroup"></path>
            </g>
        </g>
    </g>
</svg>