<svg width="35px" height="35px" viewBox="0 0 35 35" version="1.1" xmlns="http://www.w3.org/2000/svg" xmlns:xlink="http://www.w3.org/1999/xlink" xmlns:sketch="http://www.bohemiancoding.com/sketch/ns">
    <!-- Generator: Sketch 3.4.4 (17249) - http://www.bohemiancoding.com/sketch -->
    
    <desc>Created with Sketch.</desc>
    <defs></defs>
    <g id="Page-1" stroke="none" stroke-width="1" fill="none" fill-rule="evenodd" sketch:type="MSPage">
        <g id="Fill-12-+-Fill-14-Copy" sketch:type="MSLayerGroup" fill="#FFFFFF">
            <path d="M28.5754452,18.49225 C27.7568216,19.4961667 26.1988712,20.7433333 23.8106359,21.7233333 C26.3428883,30.3321667 17.64647,31.7006667 17.7788258,27.2854167 C17.7788258,27.3659167 17.7747444,24.9205833 17.7706629,23.0976667 C17.5846651,23.0515833 17.387006,22.9985 17.1578613,22.9448333 C17.154946,24.7805833 17.1508645,27.3670833 17.1508645,27.2854167 C17.2832204,31.7006667 8.5908835,30.3321667 11.1173053,21.7233333 C8.73081916,20.7433333 7.1728688,19.4961667 6.35424517,18.49225 C5.93327206,17.8698333 6.38281537,17.2159167 7.06908318,17.6948333 C7.16120749,17.7613333 7.25391487,17.8249167 7.34603918,17.88675 L7.34603918,8.98333333 C7.34603918,7.74725 8.273696,6.74975 9.41708697,6.74975 L25.5242647,6.74975 C26.6659065,6.74975 27.5953125,7.74725 27.5953125,8.98333333 L27.5953125,17.878 C27.6833554,17.8190833 27.7725643,17.7584167 27.8606072,17.6948333 C28.546875,17.2159167 28.9958352,17.8698333 28.5754452,18.49225 M31.3368423,6.86291667 C30.6424115,5.95583333 29.8611041,5.11933333 29.0057474,4.3645 C25.9277459,1.65025 21.8894359,0 17.4639706,0 C13.0385053,0 9.00019531,1.65025 5.92277688,4.3645 C5.06683709,5.11933333 4.28552964,5.95583333 3.59109892,6.86291667 C1.34046703,9.80466667 0,13.4808333 0,17.472 C0,21.4631667 1.34046703,25.1393333 3.59109892,28.0810833 C4.80270852,29.66425 6.27902976,31.0321667 7.95359318,32.123 C10.6905015,33.9050833 13.9550839,34.944 17.4639706,34.944 C20.9728573,34.944 24.2380227,33.9050833 26.9749311,32.123 C28.6494945,31.0321667 30.1252327,29.66425 31.3368423,28.0810833 C33.5880572,25.1393333 34.9279412,21.4631667 34.9279412,17.472 C34.9279412,13.4808333 33.5880572,9.80466667 31.3368423,6.86291667" id="Fill-12" sketch:type="MSShapeGroup"></path>
            <path d="M20.8461244,18.7853235 C19.3167442,18.7853235 18.0777305,17.6262402 18.0777305,16.1941569 C18.0777305,14.7638235 19.3167442,13.6029902 20.8461244,13.6029902 C22.3737554,13.6029902 23.6145182,14.7638235 23.6145182,16.1941569 C23.6145182,17.6262402 22.3737554,18.7853235 20.8461244,18.7853235 M14.4038364,18.7853235 C12.8744562,18.7853235 11.6348595,17.6262402 11.6348595,16.1941569 C11.6348595,14.7638235 12.8744562,13.6029902 14.4038364,13.6029902 C15.9314673,13.6029902 17.1722302,14.7638235 17.1722302,16.1941569 C17.1722302,17.6262402 15.9314673,18.7853235 14.4038364,18.7853235 M24.6640357,7.89215686 L10.406924,7.89215686 C8.97608188,7.89215686 8.57843137,8.38215686 8.57843137,9.94490686 L8.57843137,18.5764902 C11.6162014,20.1678235 14.2236692,19.8854902 15.6486807,19.8411569 C16.2469056,19.8108235 16.6317287,19.9432402 16.8655379,20.1899902 C16.9057694,20.2244069 16.9489162,20.2605735 16.9932292,20.3025735 C17.2614392,20.5516569 17.5226524,20.7680735 17.7792011,20.9500735 C17.8310939,20.2442402 18.2258291,19.7874902 19.288174,19.8411569 C20.735342,19.8872402 23.4016994,20.1783235 26.4971929,18.5041569 L26.4971929,9.94490686 C26.4971929,8.47432353 26.0184963,7.89215686 24.6640357,7.89215686" id="Fill-14" sketch:type="MSShapeGroup"></path>
        </g>
    </g>
</svg>