<svg width="35px" height="35px" viewBox="0 0 35 35" version="1.1" xmlns="http://www.w3.org/2000/svg" xmlns:xlink="http://www.w3.org/1999/xlink" xmlns:sketch="http://www.bohemiancoding.com/sketch/ns">
    <!-- Generator: Sketch 3.3.3 (12081) - http://www.bohemiancoding.com/sketch -->
    
    <desc>Created with Sketch.</desc>
    <defs></defs>
    <g id="Page-1" stroke="none" stroke-width="1" fill="none" fill-rule="evenodd" sketch:type="MSPage">
        <g id="Kontakt" sketch:type="MSArtboardGroup" transform="translate(-1274.000000, -2572.000000)" fill="#FFFFFF">
            <g id="Footer" sketch:type="MSLayerGroup" transform="translate(0.000000, 2276.000000)">
                <path d="M1291.25909,296 C1281.72727,296 1274,303.727273 1274,313.259091 C1274,322.786364 1281.72727,330.513636 1291.25909,330.513636 C1300.78636,330.513636 1308.51364,322.786364 1308.51364,313.259091 C1308.51364,303.727273 1300.78636,296 1291.25909,296 L1291.25909,296 Z M1297.81818,309.6 C1297.82273,309.754545 1297.82727,309.909091 1297.82727,310.063636 C1297.82727,314.795455 1294.31364,320.254545 1287.89091,320.254545 C1285.91818,320.254545 1284.08182,319.659091 1282.53636,318.645455 C1282.80909,318.677273 1283.08636,318.695455 1283.36818,318.695455 C1285.00455,318.695455 1286.51364,318.122727 1287.70909,317.163636 C1286.17727,317.131818 1284.89091,316.1 1284.44545,314.677273 C1284.65909,314.718182 1284.87727,314.740909 1285.1,314.740909 C1285.42273,314.740909 1285.81227,314.695455 1286.10318,314.613636 C1284.50318,314.286364 1283.37864,312.836364 1283.37864,311.1 L1283.37864,311.059091 C1283.83318,311.322727 1284.31227,311.486364 1284.885,311.504545 C1283.94409,310.863636 1283.29,309.763636 1283.29,308.522727 C1283.29,307.868182 1283.44273,307.25 1283.74273,306.722727 C1285.46545,308.890909 1288.02818,310.313636 1290.93273,310.463636 C1290.86909,310.2 1290.83682,309.927273 1290.83682,309.65 C1290.83682,307.672727 1292.39818,306.068182 1294.32545,306.068182 C1295.33,306.068182 1296.23773,306.5 1296.87409,307.195455 C1297.66955,307.036364 1298.41455,306.740909 1299.09182,306.327273 C1298.83273,307.163636 1298.27773,307.868182 1297.555,308.309091 C1298.26409,308.222727 1298.93682,308.031818 1299.55955,307.745455 C1299.09591,308.463636 1298.5,309.095455 1297.81818,309.6 L1297.81818,309.6 Z" id="social-icons/twitter" sketch:type="MSShapeGroup"></path>
            </g>
        </g>
    </g>
</svg>