<svg width="34px" height="35px" viewBox="0 0 34 35" version="1.1" xmlns="http://www.w3.org/2000/svg" xmlns:xlink="http://www.w3.org/1999/xlink" xmlns:sketch="http://www.bohemiancoding.com/sketch/ns">
    <!-- Generator: Sketch 3.3.3 (12081) - http://www.bohemiancoding.com/sketch -->
    
    <desc>Created with Sketch.</desc>
    <defs></defs>
    <g id="Page-1" stroke="none" stroke-width="1" fill="none" fill-rule="evenodd" sketch:type="MSPage">
        <g id="Kontakt" sketch:type="MSArtboardGroup" transform="translate(-1321.000000, -2572.000000)" fill="#FFFFFF">
            <g id="Footer" sketch:type="MSLayerGroup" transform="translate(0.000000, 2276.000000)">
                <path d="M1337.98658,296 C1328.60526,296 1321,303.727273 1321,313.259091 C1321,322.786364 1328.60526,330.513636 1337.98658,330.513636 C1347.36297,330.513636 1354.96824,322.786364 1354.96824,313.259091 C1354.96824,303.727273 1347.36297,296 1337.98658,296 L1337.98658,296 Z M1342.84947,316.072727 C1340.61666,318.981818 1338.72921,320.436364 1337.18534,320.436364 C1336.23245,320.436364 1335.42316,319.554545 1334.76105,317.777273 C1334.31816,316.15 1333.87929,314.522727 1333.43639,312.9 C1332.94429,311.122727 1332.42132,310.236364 1331.85763,310.236364 C1331.73237,310.236364 1331.30692,310.495455 1330.56921,311.013636 L1329.79929,310.013636 C1330.605,309.3 1331.40132,308.586364 1332.18868,307.872727 C1333.26639,306.936364 1334.07211,306.445455 1334.61297,306.390909 C1335.88842,306.268182 1336.67087,307.145455 1336.96613,309.013636 C1337.28421,311.036364 1337.50297,312.295455 1337.62824,312.786364 C1337.99553,314.463636 1338.39816,315.3 1338.84105,315.3 C1339.18061,315.3 1339.69508,314.759091 1340.38447,313.672727 C1341.06895,312.590909 1341.43534,311.763636 1341.48455,311.195455 C1341.58342,310.259091 1341.21613,309.795455 1340.38447,309.795455 C1339.99034,309.795455 1339.58771,309.877273 1339.17211,310.054545 C1339.98139,307.413636 1341.52526,306.131818 1343.80237,306.209091 C1345.48895,306.254545 1346.28974,307.354545 1346.19087,309.495455 C1346.11929,311.1 1345.00132,313.290909 1342.84947,316.072727 L1342.84947,316.072727 Z" id="social-icons/vimeo" sketch:type="MSShapeGroup"></path>
            </g>
        </g>
    </g>
</svg>