<svg width="35px" height="35px" viewBox="0 0 35 35" version="1.1" xmlns="http://www.w3.org/2000/svg" xmlns:xlink="http://www.w3.org/1999/xlink" xmlns:sketch="http://www.bohemiancoding.com/sketch/ns">
    <!-- Generator: Sketch 3.4.4 (17249) - http://www.bohemiancoding.com/sketch -->
    
    <desc>Created with Sketch.</desc>
    <defs></defs>
    <g id="Page-1" stroke="none" stroke-width="1" fill="none" fill-rule="evenodd" sketch:type="MSPage">
        <g id="Page-1-Copy" sketch:type="MSLayerGroup" fill="#FFFFFF">
            <path d="M10.5256724,20.1518418 L11.7079795,20.1518418 L11.7079795,26.1642157 L12.8519227,26.1642157 L12.8519227,20.1518418 L14.0342298,20.1518418 L14.0342298,19.129902 L10.5256724,19.129902 L10.5256724,20.1518418 Z" id="Fill-1" sketch:type="MSShapeGroup"></path>
            <g id="Group-16" sketch:type="MSShapeGroup">
                <path d="M17.195777,13.8874167 C17.3504932,13.8874167 17.4726375,13.8436667 17.5645366,13.7573333 C17.655854,13.6686667 17.7012219,13.5485 17.7012219,13.3968333 L17.7012219,10.2894167 C17.7012219,10.1645833 17.6546907,10.0636667 17.5610468,9.98666667 C17.4679844,9.91025 17.3458401,9.87233333 17.195777,9.87233333 C17.0556019,9.87233333 16.9427638,9.91025 16.8549362,9.98666667 C16.7688535,10.0636667 16.7240673,10.1645833 16.7240673,10.2894167 L16.7240673,13.3968333 C16.7240673,13.5525833 16.7659453,13.67275 16.8467932,13.7596667 C16.9276412,13.8454167 17.0439691,13.8874167 17.195777,13.8874167" id="Fill-2"></path>
                <path d="M16.3286105,24.9369167 C16.2314766,25.0489167 16.1279448,25.1410833 16.0133618,25.214 C15.8993604,25.2875 15.8039715,25.3236667 15.7295216,25.3236667 C15.635296,25.3236667 15.5660809,25.2968333 15.5212946,25.2414167 C15.4805798,25.186 15.4590592,25.0979167 15.4590592,24.9748333 L15.4590592,21.0029167 L14.4446796,21.0029167 L14.4446796,25.3324167 C14.4446796,25.6421667 14.5051701,25.8708333 14.6220797,26.026 C14.7430607,26.18175 14.9175526,26.257 15.1531167,26.257 C15.3438945,26.257 15.5399071,26.2039167 15.7428993,26.0925 C15.9470548,25.984 16.1407409,25.8235833 16.3297737,25.613 L16.3297737,26.18175 L17.34299,26.18175 L17.34299,21.0029167 L16.3286105,21.0029167 L16.3286105,24.9369167 Z" id="Fill-4"></path>
                <path d="M25.3742706,27.7310833 C24.5401993,28.56525 17.5139921,28.5833333 17.5139921,28.5833333 C17.5139921,28.5833333 10.4883665,28.56525 9.65255033,27.7305 C8.81615249,26.8934167 8.81440757,22.771 8.81440757,22.7395 C8.81440757,22.7155833 8.81673413,18.5861667 9.65255033,17.7490833 C10.4889482,16.9143333 17.5139921,16.90325 17.5139921,16.9038333 C17.5139921,16.90325 24.5401993,16.9143333 25.3742706,17.7496667 C26.2112501,18.58675 26.2205563,22.7161667 26.2205563,22.7400833 C26.2205563,22.7400833 26.2135767,26.8916667 25.3742706,27.7310833 L25.3742706,27.7310833 Z M12.4351145,7 L13.2709307,10.0905 L13.3517786,10.0905 L14.1462984,7 L15.4549877,7 L13.9578472,11.52375 L13.9578472,14.7320833 L12.6706786,14.7320833 L12.6706786,11.6684167 L11.1386397,7 L12.4351145,7 Z M15.54805,10.3325833 C15.5474684,9.88983333 15.7010213,9.53808333 16.0098719,9.27675 C16.3169777,9.01483333 16.7316868,8.88358333 17.2499277,8.88358333 C17.7222191,8.88358333 18.1107544,9.02183333 18.4137887,9.29833333 C18.7144964,9.57425 18.8657227,9.93008333 18.8657227,10.3646667 L18.8657227,13.3110833 C18.8657227,13.79875 18.7174046,14.1808333 18.4225133,14.4590833 C18.1241321,14.73675 17.717566,14.8755833 17.1975801,14.8755833 C16.6985333,14.8755833 16.2977836,14.7320833 15.9970759,14.44625 C15.6986947,14.15925 15.54805,13.7736667 15.54805,13.2889167 L15.54805,10.3325833 Z M19.7928563,9.02766667 L20.9340334,9.02766667 L20.9340334,13.4009167 C20.9340334,13.5356667 20.9602072,13.6336667 21.0079016,13.69375 C21.0544328,13.7544167 21.1335358,13.78475 21.2399758,13.78475 C21.3231503,13.78475 21.430172,13.7445 21.5587144,13.6645833 C21.6866751,13.5846667 21.804748,13.4825833 21.9106064,13.3571667 L21.9106064,9.02766667 L23.05411,9.02766667 L23.05411,14.7320833 L23.0546916,14.7320833 L23.05411,14.7320833 L21.911188,14.7320833 L21.911188,14.1020833 C21.702961,14.3336667 21.4831012,14.5121667 21.2539352,14.6323333 C21.0259324,14.7536667 20.805491,14.8143333 20.590866,14.8143333 C20.324475,14.8143333 20.1272991,14.7291667 19.993522,14.5594167 C19.8603265,14.3896667 19.7928563,14.1353333 19.7928563,13.7946667 L19.7928563,9.02766667 Z M17.5174819,0 C7.8808759,0 0.0682918513,7.83475 0.0682918513,17.5 C0.0682918513,27.1646667 7.8808759,35 17.5174819,35 C27.154088,35 34.966672,27.1646667 34.966672,17.5 C34.966672,7.83475 27.154088,0 17.5174819,0 L17.5174819,0 Z" id="Fill-6"></path>
                <path d="M23.5025542,22.911 L22.6050841,22.911 L22.6050841,22.3883333 C22.6050841,22.1713333 22.6394009,22.015 22.7097793,21.924 C22.7807393,21.8271667 22.8970673,21.7816667 23.0587631,21.7816667 C23.2128976,21.7816667 23.3274806,21.8271667 23.3949508,21.924 C23.4664925,22.015 23.5025542,22.1713333 23.5025542,22.3883333 L23.5025542,22.911 Z M23.1018044,20.8763333 C22.6463806,20.8763333 22.2770394,21.0175 21.990291,21.3004167 C21.7035427,21.58275 21.5587144,21.95025 21.5587144,22.39825 L21.5587144,24.7234167 C21.5587144,25.2233333 21.6913282,25.61475 21.9519028,25.89825 C22.213059,26.1835 22.5719307,26.3246667 23.0261913,26.3246667 C23.5316361,26.3246667 23.9120285,26.1916667 24.1650417,25.9239167 C24.4209632,25.6538333 24.547179,25.25425 24.547179,24.7228333 L24.547179,24.4568333 L23.5031358,24.4568333 L23.5031358,24.6930833 C23.5031358,24.99875 23.4676558,25.19475 23.4013489,25.284 C23.3344603,25.37325 23.2169691,25.4175833 23.0488752,25.4175833 C22.8865977,25.4175833 22.773178,25.36625 22.7045445,25.2606667 C22.6388192,25.1545 22.6056658,24.9655 22.6056658,24.6925 L22.6056658,23.7189167 L22.6056658,23.7171667 L22.6056658,23.7189167 L24.547179,23.7189167 L24.547179,22.39825 C24.547179,21.9070833 24.4232898,21.5308333 24.1737663,21.2695 C23.9236613,21.0075833 23.5665345,20.8763333 23.1018044,20.8763333 L23.1018044,20.8763333 Z" id="Fill-8"></path>
                <path d="M19.9824709,24.9695833 C19.9824709,25.1364167 19.951644,25.2536667 19.89348,25.326 C19.835316,25.4000833 19.7445802,25.43625 19.6201094,25.43625 C19.5340267,25.43625 19.4531788,25.417 19.3752391,25.38025 C19.2967177,25.3440833 19.2158698,25.2805 19.1338586,25.1976667 L19.1338586,21.97125 C19.2030737,21.9000833 19.2728705,21.847 19.3432489,21.8131667 C19.4136273,21.77875 19.485169,21.7635833 19.5584556,21.7635833 C19.6945592,21.7635833 19.8009993,21.8079167 19.8748675,21.89775 C19.9464092,21.9875833 19.9824709,22.1211667 19.9824709,22.2955833 L19.9824709,24.9695833 Z M20.0365634,20.9410833 C19.878939,20.9410833 19.7236412,20.9813333 19.5683434,21.0641667 C19.4153722,21.14525 19.2711256,21.2665833 19.133277,21.4240833 L19.133277,19.1636667 L18.1072646,19.1636667 L18.1072646,26.1823333 L19.133277,26.1823333 L19.133277,25.7850833 C19.2653092,25.9449167 19.4118824,26.0604167 19.5671801,26.1356667 C19.7218963,26.2115 19.8981331,26.2476667 20.0976355,26.2476667 C20.3989249,26.2476667 20.6304175,26.1514167 20.7880418,25.9554167 C20.9474111,25.7594167 21.0270957,25.4788333 21.0270957,25.1125 L21.0270957,22.239 C21.0270957,21.8149167 20.9433396,21.49175 20.7723375,21.2706667 C20.603662,21.0513333 20.3587917,20.9410833 20.0365634,20.9410833 L20.0365634,20.9410833 Z" id="Fill-10"></path>
            </g>
        </g>
    </g>
</svg>